<svg width="158" height="56" viewBox="0 0 158 56" fill="none" xmlns="http://www.w3.org/2000/svg">
<path d="M20.9903 32.5195C20.0266 33.0776 18.931 33.3672 17.8174 33.358C16.4645 33.3634 15.135 33.0057 13.9673 32.3224C12.5409 31.392 11.3606 30.1305 10.5271 28.6453L7.84897 30.3109C8.87465 32.1952 10.3543 33.7938 12.1539 34.9618C13.8037 35.8954 15.6749 36.3662 17.57 36.3245C19.3044 36.3509 21.0157 35.9238 22.5343 35.0855C23.9788 34.2826 25.1918 33.1208 26.0563 31.7123C26.9424 30.265 27.3997 28.5959 27.3749 26.899C27.3954 25.2994 26.9746 23.725 26.159 22.3488C25.3682 21.0131 24.2498 19.9012 22.9095 19.1182C21.5291 18.3146 19.9564 17.9009 18.3593 17.9211H17.9065L26.268 9.10468L25.4431 7.47998H9.86777V10.4862H21.1129L12.0921 20.1548L13.0805 22.7156C13.9145 22.1032 14.838 21.6231 15.8184 21.2922C16.5455 21.062 17.3022 20.9391 18.0647 20.9274C18.8706 20.8966 19.6742 21.0323 20.4254 21.326C21.1765 21.6196 21.8591 22.0648 22.4306 22.6339C22.9966 23.2197 23.438 23.9141 23.7283 24.6753C24.0185 25.4365 24.1515 26.2486 24.1192 27.0625C24.1363 28.1891 23.8445 29.2987 23.2754 30.2711C22.7222 31.2066 21.9346 31.9816 20.9903 32.5195Z" fill="white"/>
<path d="M35.7154 34.8149C37.2776 35.6991 39.0485 36.1483 40.8433 36.1157C42.5547 36.1353 44.2377 35.678 45.7038 34.795C47.1521 33.9225 48.3507 32.6909 49.1838 31.2196C50.0652 29.6533 50.5135 27.8804 50.4825 26.0833C50.4986 24.4368 50.0714 22.8162 49.2457 21.3916C48.4533 20.0009 47.3285 18.8283 45.9721 17.9786C44.6235 17.1284 43.0589 16.6838 41.4648 16.6977C39.7522 16.6843 38.0741 17.1793 36.6431 18.1201C37.1378 17.1726 37.6598 16.2383 38.2091 15.3172L42.8632 7.6381L42.6997 7.23242H39.5278L35.3255 14.2208C34.0136 16.3397 32.9032 18.5769 32.0089 20.9031C31.3435 22.5256 30.9607 24.25 30.8769 26.0016C30.8399 27.8324 31.2877 29.6405 32.1746 31.2426C33.0118 32.7304 34.235 33.9646 35.7154 34.8149ZM34.9932 23.0331C35.5561 22.045 36.365 21.2192 37.3412 20.6359C38.3764 20.0277 39.5599 19.7182 40.7604 19.7417C41.9168 19.7271 43.0533 20.0444 44.035 20.6558C44.9992 21.256 45.7986 22.0871 46.3609 23.074C46.9372 24.0741 47.2358 25.21 47.2258 26.3643C47.2494 27.5719 46.9509 28.764 46.3609 29.8181C45.8048 30.7985 45.0033 31.6174 44.035 32.1944C43.0306 32.7844 41.8832 33.0865 40.7185 33.0675C39.528 33.0866 38.3541 32.785 37.3202 32.1944C36.3316 31.627 35.519 30.7974 34.9722 29.7972C34.3995 28.7448 34.1085 27.5622 34.1273 26.3643C34.1141 25.1967 34.4127 24.0468 34.9922 23.0331H34.9932Z" fill="white"/>
<path d="M65.0222 36.317C66.5435 36.3734 68.0547 36.048 69.418 35.3706C70.7813 34.6932 71.9532 33.6852 72.8271 32.4387C74.7083 29.8531 75.6489 26.2711 75.6489 21.6925C75.6489 17.0874 74.7083 13.4983 72.8271 10.9253C71.908 9.72523 70.7249 8.75291 69.3695 8.08371C68.0141 7.41451 66.5228 7.06641 65.0112 7.06641C63.4996 7.06641 62.0083 7.41451 60.6528 8.08371C59.2974 8.75291 58.1143 9.72523 57.1953 10.9253C55.3281 13.4983 54.3945 17.0874 54.3945 21.6925C54.3945 26.2697 55.3281 29.8517 57.1953 32.4387C58.07 33.6896 59.2453 34.7005 60.613 35.3782C61.9808 36.056 63.497 36.3788 65.0222 36.317ZM59.5642 13.0983C60.1403 12.1725 60.9427 11.4088 61.8958 10.8793C62.8489 10.3498 63.9214 10.0719 65.0117 10.0719C66.1021 10.0719 67.1744 10.3498 68.1276 10.8793C69.0807 11.4088 69.8831 12.1725 70.4592 13.0983C71.7498 15.1164 72.3952 17.9815 72.3952 21.6935C72.3952 25.4056 71.7498 28.2707 70.4592 30.2888C69.8831 31.2146 69.0807 31.9782 68.1276 32.5078C67.1744 33.0373 66.1021 33.3151 65.0117 33.3151C63.9214 33.3151 62.8489 33.0373 61.8958 32.5078C60.9427 31.9782 60.1403 31.2146 59.5642 30.2888C58.2868 28.2707 57.6481 25.4056 57.6481 21.6935C57.6481 17.9815 58.2871 15.1164 59.5652 13.0983H59.5642Z" fill="white"/>
<path d="M141.308 11.9819C139.69 11.0434 137.845 10.5656 135.974 10.6004H128.519V32.7836H135.974C137.845 32.8186 139.69 32.3409 141.308 31.4021C142.864 30.4774 144.128 29.1333 144.955 27.5237C145.823 25.7024 146.273 23.7104 146.273 21.6931C146.273 19.6757 145.823 17.6837 144.955 15.8624C144.128 14.2521 142.864 12.9072 141.308 11.9819Z" fill="white"/>
<path d="M0.0440369 0V43.3831H158V0H0.0440369ZM80.5702 40.5383H2.92865V2.84482H80.5702V40.5383ZM116.781 35.9115H113.527V22.9556C113.527 21.0325 113.554 19.2716 113.609 17.6727C113.663 16.0739 113.746 14.5169 113.857 13.0019L104.382 27.6673H102.158L92.8489 12.9977C92.9886 14.433 93.0781 15.9428 93.1172 17.527C93.1563 19.1112 93.177 20.9194 93.1791 22.9515V35.9115H89.9244V7.47262H93.0963L103.389 24.0038L113.852 7.46846H116.776L116.781 35.9115ZM147.9 29.0866C146.793 31.1629 145.141 32.8979 143.121 34.1044C141.017 35.3322 138.616 35.9574 136.181 35.9115H125.266V7.47262H136.181C138.616 7.42699 141.017 8.05217 143.121 9.27972C145.141 10.4864 146.793 12.2214 147.9 14.2975C149.051 16.5925 149.65 19.1245 149.65 21.692C149.65 24.2596 149.051 26.7916 147.9 29.0866Z" fill="white"/>
<path d="M0 48.4856H0.766192V55.2769H0V48.4856Z" fill="white"/>
<path d="M3.24319 48.4856H3.96121L8.23995 53.9289V48.4856H8.98733V55.2769H8.37622L3.99051 49.7078V55.2769H3.24422L3.24319 48.4856Z" fill="white"/>
<path d="M13.1948 49.1941H10.9149V48.4856H16.2513V49.1941H13.9715V55.2737H13.1948V49.1941Z" fill="white"/>
<path d="M18.1769 48.4856H23.0856V49.1847H18.9431V51.5033H22.6495V52.2024H18.9431V54.5788H23.1359V55.2779H18.1779L18.1769 48.4856Z" fill="white"/>
<path d="M24.8686 51.9018V51.8818C24.8547 51.4258 24.9325 50.9716 25.0974 50.5462C25.2623 50.1208 25.5109 49.7328 25.8285 49.4053C26.1461 49.0777 26.5262 48.8171 26.9464 48.6392C27.3665 48.4612 27.818 48.3694 28.2743 48.3692C29.2036 48.3297 30.1119 48.6534 30.8068 49.2718L30.312 49.8535C29.753 49.331 29.0096 49.0516 28.2449 49.0768C27.8912 49.086 27.543 49.1658 27.2206 49.3116C26.8983 49.4574 26.6083 49.6663 26.3679 49.9258C26.1274 50.1853 25.9413 50.4902 25.8205 50.8227C25.6996 51.1552 25.6465 51.5085 25.6643 51.8619V51.8808C25.6356 52.2474 25.6843 52.6158 25.8074 52.9623C25.9304 53.3087 26.1251 53.6255 26.3786 53.8919C26.6321 54.1582 26.9388 54.3682 27.2787 54.5082C27.6187 54.6482 27.9843 54.7152 28.3518 54.7046C29.0625 54.702 29.752 54.4631 30.312 54.0254V52.3367H28.2449V51.647H31.0488V54.3545C30.2977 55.022 29.3284 55.3914 28.3235 55.3933C27.862 55.411 27.4017 55.3325 26.9721 55.1628C26.5425 54.9931 26.1528 54.7359 25.8279 54.4075C25.503 54.0792 25.25 53.6869 25.0848 53.2555C24.9197 52.8241 24.8461 52.3631 24.8686 51.9018Z" fill="white"/>
<path d="M33.2678 48.4855H36.1881C36.8963 48.4476 37.5906 48.6918 38.119 49.1647C38.29 49.3425 38.4243 49.5522 38.5142 49.7818C38.6042 50.0115 38.6479 50.2566 38.6431 50.5032V50.5232C38.6413 51.0246 38.4504 51.5069 38.1086 51.8738C37.7668 52.2406 37.2993 52.4649 36.7993 52.5022L38.8852 55.2779H37.9418L35.9723 52.6384H34.032V55.2779H33.2658L33.2678 48.4855ZM36.1201 51.9445C37.1389 51.9445 37.8664 51.4204 37.8664 50.5473V50.5285C37.8664 49.6899 37.226 49.1899 36.1295 49.1899H34.0331V51.9456L36.1201 51.9445Z" fill="white"/>
<path d="M43.2856 48.4375H44.0037L47.099 55.2781H46.2751L45.4795 53.4835H41.7825L40.9774 55.2781H40.1955L43.2856 48.4375ZM45.1776 52.7844L43.6346 49.3252L42.0823 52.7844H45.1776Z" fill="white"/>
<path d="M49.8504 49.1941H47.5707V48.4856H52.907V49.1941H50.6271V55.2737H49.8504V49.1941Z" fill="white"/>
<path d="M54.9007 48.4856H55.6669V55.2769H54.9007V48.4856Z" fill="white"/>
<path d="M57.5621 48.4856H58.4154L60.8262 54.3366L63.2517 48.4856H64.0768L61.1565 55.3262H60.4772L57.5621 48.4856Z" fill="white"/>
<path d="M65.9131 48.4856H70.8219V49.1847H66.6795V51.5033H70.3858V52.2024H66.6795V54.5788H70.8723V55.2779H65.9153L65.9131 48.4856Z" fill="white"/>
<path d="M76.302 48.4856H78.8438C80.3773 48.4856 81.3857 49.3 81.3857 50.6396V50.6595C81.3857 52.127 80.1635 52.8817 78.718 52.8817H77.0692V55.2779H76.303L76.302 48.4856ZM78.7473 52.1816C79.8731 52.1816 80.6101 51.5809 80.6101 50.6878V50.6679C80.6101 49.6972 79.8816 49.1931 78.7862 49.1931H77.0692V52.1816H78.7473Z" fill="white"/>
<path d="M83.2736 48.4855H86.1938C86.9019 48.4476 87.5962 48.6918 88.1246 49.1647C88.2956 49.3425 88.4299 49.5522 88.5199 49.7818C88.6098 50.0115 88.6536 50.2566 88.6487 50.5032V50.5232C88.6469 51.0246 88.4562 51.5069 88.1144 51.8738C87.7726 52.2406 87.3049 52.4649 86.8049 52.5022L88.8908 55.2779H87.9475L85.9779 52.6384H84.0366V55.2779H83.2704L83.2736 48.4855ZM86.1257 51.9445C87.1445 51.9445 87.872 51.4204 87.872 50.5473V50.5285C87.872 49.6899 87.2316 49.1899 86.1352 49.1899H84.0388V51.9456L86.1257 51.9445Z" fill="white"/>
<path d="M90.8478 48.4856H91.6141V55.2769H90.8478V48.4856Z" fill="white"/>
<path d="M94.091 48.4856H94.8667L97.3404 52.1921L99.8152 48.4856H100.591V55.2769H99.8247V49.7759L97.3509 53.4142H97.3122L94.8384 49.7854V55.2769H94.091V48.4856Z" fill="white"/>
<path d="M105.517 48.4375H106.235L109.331 55.2781H108.507L107.711 53.4835H104.014L103.209 55.2781H102.424L105.517 48.4375ZM107.409 52.7844L105.866 49.3252L104.314 52.7844H107.409Z" fill="white"/>
<path d="M111.161 48.4855H114.081C114.789 48.4476 115.484 48.6918 116.012 49.1647C116.183 49.3425 116.317 49.5522 116.407 49.7818C116.497 50.0115 116.541 50.2566 116.536 50.5032V50.5232C116.534 51.0246 116.344 51.5069 116.002 51.8738C115.66 52.2406 115.192 52.4649 114.692 52.5022L116.778 55.2779H115.835L113.865 52.6384H111.925V55.2779H111.159L111.161 48.4855ZM114.013 51.9445C115.032 51.9445 115.759 51.4204 115.759 50.5473V50.5285C115.759 49.6899 115.119 49.1899 114.023 49.1899H111.926V51.9456L114.013 51.9445Z" fill="white"/>
<path d="M120.55 52.5892L117.726 48.4856H118.658L120.948 51.8807L123.254 48.4856H124.147L121.323 52.5799V55.2769H120.548L120.55 52.5892Z" fill="white"/>
<path d="M128.957 51.9016V51.8817C128.945 51.4237 129.025 50.9678 129.192 50.5413C129.36 50.1148 129.611 49.7263 129.931 49.3987C130.251 49.0711 130.634 48.8112 131.057 48.6343C131.479 48.4574 131.933 48.3672 132.391 48.369C132.883 48.3542 133.373 48.4423 133.83 48.6279C134.286 48.8135 134.698 49.0924 135.04 49.4467L134.516 50.0085C134.242 49.7166 133.912 49.4834 133.545 49.3232C133.178 49.163 132.782 49.0791 132.382 49.0766C132.024 49.0808 131.672 49.1568 131.344 49.3002C131.017 49.4436 130.722 49.6515 130.476 49.9114C130.231 50.1713 130.041 50.4779 129.916 50.813C129.792 51.1481 129.736 51.5047 129.753 51.8617V51.8806C129.736 52.2387 129.792 52.5964 129.915 52.9327C130.039 53.269 130.23 53.5771 130.475 53.8386C130.72 54.1001 131.015 54.3099 131.342 54.4553C131.67 54.6008 132.023 54.679 132.382 54.6855C132.796 54.6851 133.205 54.5977 133.583 54.4288C133.96 54.26 134.298 54.0136 134.575 53.7055L135.079 54.2003C134.739 54.5842 134.321 54.8897 133.852 55.0959C133.382 55.302 132.874 55.4038 132.362 55.3941C131.907 55.3966 131.456 55.3073 131.036 55.1316C130.616 54.9558 130.235 54.6971 129.918 54.3711C129.6 54.0451 129.351 53.6585 129.186 53.2341C129.021 52.8098 128.943 52.3567 128.957 51.9016Z" fill="white"/>
<path d="M139.425 48.4375H140.143L143.238 55.2781H142.414L141.619 53.4835H137.922L137.117 55.2781H136.332L139.425 48.4375ZM141.317 52.7844L139.774 49.3252L138.221 52.7844H141.317Z" fill="white"/>
<path d="M145.069 48.4855H147.99C148.698 48.4476 149.392 48.6918 149.921 49.1647C150.092 49.3425 150.226 49.5522 150.316 49.7818C150.406 50.0115 150.45 50.2566 150.445 50.5032V50.5232C150.443 51.0246 150.252 51.5069 149.91 51.8738C149.568 52.2406 149.101 52.4649 148.601 52.5022L150.687 55.2779H149.743L147.774 52.6384H145.832V55.2779H145.066L145.069 48.4855ZM147.922 51.9445C148.94 51.9445 149.668 51.4204 149.668 50.5473V50.5285C149.668 49.6899 149.027 49.1899 147.931 49.1899H145.834V51.9456L147.922 51.9445Z" fill="white"/>
<path d="M152.575 48.4856H157.484V49.1847H153.342V51.5033H157.048V52.2024H153.342V54.5788H157.535V55.2779H152.578L152.575 48.4856Z" fill="white"/>
</svg>
